# xmcd
#
# Track frame offsets:
#	150
#	20840
#	41487
#	57315
#	83682
#	105067
#	132380
#	156582
#	172102
#	196545
#	214702
#	237655
#
# Disc length: 3506 seconds
#
# Revision: 10
# Processed by: cddbd v1.5.2PL0 Copyright (c) Steve Scherf et al.
# Submitted via: EasyCDDAExtractor 10.2.0.1
#
DISCID=a00db00c
DTITLE=Vida Reluz - Celebra a Vitoria
DYEAR=1900
DGENRE=Gospel
TTITLE0=Declaramos
TTITLE1=Como es Lindo
TTITLE2=Deus Quero Louvar-Te
TTITLE3=Maior Motivo
TTITLE4=Nova Criatura
TTITLE5=Celebra a Vitoria
TTITLE6=Pisara Nosso Chao
TTITLE7=Eternamente
TTITLE8=Sede Santos
TTITLE9=Jesus e' O Senhor
TTITLE10=Simplesmente
TTITLE11=Pare de Resistir
EXTD=Vida Reluz - Segundo CDDados enviados por Rodrigo Pereira (pereira@catoli
EXTD=cos.com.br)
EXTT0=
EXTT1=
EXTT2=
EXTT3=
EXTT4=
EXTT5=
EXTT6=
EXTT7=
EXTT8=
EXTT9=
EXTT10=
EXTT11=
PLAYORDER=
